HIERARCHY
ROOT Hips
{
	OFFSET -163.737 95.9676 49.576
	CHANNELS 6 Xposition Yposition Zposition Zrotation Xrotation Yrotation
	JOINT Spine
	{
		OFFSET 0 11.334 0
		CHANNELS 3 Zrotation Xrotation Yrotation
		JOINT Spine1
		{
			OFFSET 0 11.334 0
			CHANNELS 3 Zrotation Xrotation Yrotation
			JOINT Spine2
			{
				OFFSET 0 11.334 0
				CHANNELS 3 Zrotation Xrotation Yrotation
				JOINT Spine3
				{
					OFFSET 0 11.334 0
					CHANNELS 3 Zrotation Xrotation Yrotation
					JOINT LeftShoulder
					{
						OFFSET 1.5 7.37272 0
						CHANNELS 3 Zrotation Xrotation Yrotation
						JOINT LeftArm
						{
							OFFSET 16.2844 0 0
							CHANNELS 3 Zrotation Xrotation Yrotation
							JOINT LeftForeArm
							{
								OFFSET 30.7521 0 0
								CHANNELS 3 Zrotation Xrotation Yrotation
								JOINT LeftHand
								{
									OFFSET 24.6266 0 0
									CHANNELS 3 Zrotation Xrotation Yrotation
									End Site
									{
										OFFSET 10 0 0
									}
								}
							}
						}
					}
					JOINT RightShoulder
					{
						OFFSET -1.49999 7.37272 0
						CHANNELS 3 Zrotation Xrotation Yrotation
						JOINT RightArm
						{
							OFFSET -16.2844 0 0
							CHANNELS 3 Zrotation Xrotation Yrotation
							JOINT RightForeArm
							{
								OFFSET -30.7521 0 0
								CHANNELS 3 Zrotation Xrotation Yrotation
								JOINT RightHand
								{
									OFFSET -24.6266 0 0
									CHANNELS 3 Zrotation Xrotation Yrotation
									End Site
									{
										OFFSET -10 0 0
									}
								}
							}
						}
					}
					JOINT Neck
					{
						OFFSET 0 11.334 0
						CHANNELS 3 Zrotation Xrotation Yrotation
						JOINT Head
						{
							OFFSET 0 8.37275 0
							CHANNELS 3 Zrotation Xrotation Yrotation
							End Site
							{
								OFFSET 0 15 0
							}
						}
					}
				}
			}
		}
	}
	JOINT LeftUpLeg
	{
		OFFSET 15.2919 0 0
		CHANNELS 3 Zrotation Xrotation Yrotation
		JOINT LeftLeg
		{
			OFFSET 0 -45.786 0
			CHANNELS 3 Zrotation Xrotation Yrotation
			JOINT LeftFoot
			{
				OFFSET 0 -39.104 0
				CHANNELS 3 Zrotation Xrotation Yrotation
				JOINT LeftToeBase
				{
					OFFSET 0 -7.82312 13.5501
					CHANNELS 3 Zrotation Xrotation Yrotation
					End Site
					{
						OFFSET 0 0 5
					}
				}
			}
		}
	}
	JOINT RightUpLeg
	{
		OFFSET -15.2919 0 0
		CHANNELS 3 Zrotation Xrotation Yrotation
		JOINT RightLeg
		{
			OFFSET 0 -45.786 0
			CHANNELS 3 Zrotation Xrotation Yrotation
			JOINT RightFoot
			{
				OFFSET 0 -39.104 0
				CHANNELS 3 Zrotation Xrotation Yrotation
				JOINT RightToeBase
				{
					OFFSET 0 -7.82312 13.5501
					CHANNELS 3 Zrotation Xrotation Yrotation
					End Site
					{
						OFFSET 0 0 5
					}
				}
			}
		}
	}
}
MOTION
Frames: 19
Frame Time: 0.005
-162.028 94.7992 34.8627 2.18886 29.8719 -4.77518 178.72 155.929 -179.526 178.72 155.929 -179.526 178.72 155.929 -179.526 178.72 155.929 -179.526 7.62488 -31.413 -0.659061 123.377 152.78 156.845 4.65902 -0.0336385 -11.1506 175.847 -173.848 -167.481 176.044 -146.797 -178.561 60.3345 16.4777 13.9487 5.87052 4.60738 -0.733856 10.5062 -4.89749 -3.97165 4.85447 -42.3543 -0.152645 177.992 -176.016 -178.41 176.755 -139.421 171.919 1.05102 -1.38183 -0.0197106 1.81782 11.4642 6.09964 1.19424 -2.76125 1.15443 1.71251 -41.9006 4.14926 179.194 -178.886 -179.979 178.573 167.323 179.817 1.26619 -5.92662 1.15052
-162.022 94.8031 34.8791 2.19359 29.7067 -4.79628 178.711 155.967 -179.515 178.711 155.967 -179.515 178.711 155.967 -179.515 178.711 155.967 -179.515 7.62949 -31.3547 -0.658653 123.409 152.71 156.781 4.79774 0.365437 -11.1692 175.711 -173.549 -167.323 176.109 -146.858 -178.562 60.2921 16.4745 13.9621 5.88153 4.60729 -0.743361 10.5189 -4.89904 -3.96694 4.86994 -42.3406 -0.143272 177.992 -176.055 -178.416 176.754 -139.598 171.991 1.05102 -1.38039 -0.0197106 1.83065 11.4486 6.05889 1.19433 -2.76539 1.15443 1.70015 -41.7298 4.16321 179.194 -178.886 -179.979 178.578 167.328 179.815 1.26621 -5.92722 1.15052
-162.016 94.8069 34.8957 2.19767 29.5411 -4.81661 178.704 156.006 -179.503 178.704 156.006 -179.503 178.704 156.006 -179.503 178.704 156.006 -179.503 7.63422 -31.2967 -0.658247 123.439 152.637 156.719 4.94377 0.78446 -11.1914 175.571 -173.235 -167.157 176.174 -146.92 -178.563 60.2499 16.472 13.9741 5.89282 4.60726 -0.7528 10.5321 -4.9007 -3.96207 4.88295 -42.3264 -0.134958 177.993 -176.096 -178.422 176.754 -139.776 172.064 1.05102 -1.37892 -0.0197106 1.84348 11.4328 6.01725 1.19441 -2.76967 1.15444 1.68804 -41.5584 4.17618 179.194 -178.886 -179.979 178.583 167.334 179.815 1.26621 -5.92758 1.15052
-162.01 94.8108 34.9125 2.20105 29.3754 -4.83605 178.696 156.047 -179.491 178.696 156.047 -179.491 178.696 156.047 -179.491 178.696 156.047 -179.491 7.63867 -31.2393 -0.657847 123.467 152.562 156.658 5.09608 1.22114 -11.2174 175.429 -172.908 -166.983 176.239 -146.983 -178.564 60.2077 16.4702 13.9847 5.90439 4.60733 -0.762175 10.5459 -4.90248 -3.95705 4.89325 -42.3117 -0.127777 177.993 -176.138 -178.429 176.754 -139.955 172.138 1.05102 -1.37741 -0.0197106 1.85633 11.4169 5.97465 1.1945 -2.77413 1.15444 1.67617 -41.3866 4.18799 179.194 -178.887 -179.979 178.588 167.34 179.814 1.26622 -5.92767 1.15052
-162.005 94.8147 34.9295 2.20367 29.2096 -4.85451 178.69 156.089 -179.48 178.69 156.089 -179.48 178.69 156.089 -179.48 178.69 156.089 -179.48 7.64242 -31.1825 -0.657452 123.493 152.484 156.598 5.2535 1.67287 -11.2469 175.285 -172.572 -166.803 176.304 -147.047 -178.565 60.1656 16.4693 13.994 5.91625 4.60754 -0.771487 10.5603 -4.90439 -3.95194 4.90066 -42.2966 -0.12178 177.995 -176.181 -178.438 176.755 -140.133 172.211 1.05102 -1.37586 -0.0197106 1.86922 11.4008 5.93105 1.1946 -2.77881 1.15445 1.66454 -41.2145 4.19844 179.194 -178.887 -179.979 178.593 167.346 179.815 1.26621 -5.92746 1.15052
-161.999 94.8186 34.9468 2.20549 29.0439 -4.87186 178.684 156.132 -179.469 178.684 156.132 -179.469 178.684 156.132 -179.469 178.684 156.132 -179.469 7.64503 -31.1264 -0.657063 123.517 152.406 156.542 5.41479 2.13684 -11.2799 175.141 -172.227 -166.617 176.369 -147.112 -178.566 60.1234 16.4695 14.0021 5.92838 4.60793 -0.780737 10.5756 -4.90643 -3.94675 4.90502 -42.2809 -0.117 177.997 -176.225 -178.448 176.755 -140.311 172.285 1.05102 -1.37426 -0.0197106 1.88216 11.3847 5.88643 1.1947 -2.78373 1.15445 1.65313 -41.0422 4.20735 179.194 -178.888 -179.979 178.597 167.353 179.815 1.2662 -5.92689 1.15052
-161.994 94.8226 34.9643 2.20648 28.8784 -4.888 178.679 156.177 -179.459 178.679 156.177 -179.459 178.679 156.177 -179.459 178.679 156.177 -179.459 7.64603 -31.0711 -0.65668 123.539 152.326 156.488 5.57865 2.61001 -11.3162 174.997 -171.876 -166.426 176.434 -147.178 -178.567 60.081 16.4707 14.009 5.94079 4.60856 -0.789922 10.5919 -4.90861 -3.94156 4.90622 -42.2648 -0.113451 177.999 -176.27 -178.459 176.755 -140.489 172.359 1.05102 -1.3726 -0.0197105 1.89516 11.3685 5.84079 1.1948 -2.78892 1.15446 1.64192 -40.8698 4.21456 179.194 -178.888 -179.979 178.602 167.36 179.817 1.26618 -5.9259 1.15052
-161.99 94.8266 34.9821 2.20657 28.7132 -4.90283 178.674 156.224 -179.448 178.674 156.224 -179.448 178.674 156.224 -179.448 178.674 156.224 -179.448 7.64494 -31.0166 -0.656304 123.558 152.246 156.437 5.74376 3.08929 -11.3555 174.856 -171.522 -166.231 176.499 -147.245 -178.568 60.0383 16.4731 14.0149 5.95348 4.60947 -0.799042 10.6092 -4.91094 -3.93641 4.90419 -42.2482 -0.111127 178.002 -176.317 -178.472 176.756 -140.667 172.433 1.05102 -1.37087 -0.0197105 1.90823 11.3523 5.79415 1.19491 -2.79441 1.15446 1.63088 -40.6975 4.21988 179.194 -178.889 -179.979 178.606 167.367 179.819 1.26615 -5.92443 1.15052
-161.985 94.8306 35.0002 2.20575 28.5486 -4.91622 178.671 156.272 -179.438 178.671 156.272 -179.438 178.671 156.272 -179.438 178.671 156.272 -179.438 7.64126 -30.9631 -0.655937 123.576 152.166 156.39 5.90879 3.57153 -11.3975 174.717 -171.166 -166.034 176.564 -147.314 -178.569 59.9951 16.4768 14.0198 5.96645 4.6107 -0.808094 10.6277 -4.91341 -3.93136 4.89889 -42.2312 -0.110016 178.006 -176.365 -178.486 176.756 -140.844 172.506 1.05102 -1.36907 -0.0197105 1.92137 11.3361 5.74656 1.19503 -2.80021 1.15447 1.61997 -40.5252 4.22316 179.194 -178.89 -179.979 178.61 167.374 179.822 1.26611 -5.9224 1.15051
-161.981 94.8346 35.0185 2.20395 28.3845 -4.92805 178.668 156.321 -179.429 178.668 156.321 -179.429 178.668 156.321 -179.429 178.668 156.321 -179.429 7.6345 -30.9106 -0.655577 123.591 152.088 156.346 6.07247 4.05359 -11.4418 174.582 -170.812 -165.834 176.63 -147.383 -178.57 59.9515 16.4818 14.024 5.97971 4.61232 -0.817079 10.6477 -4.91605 -3.9265 4.89032 -42.2138 -0.110081 178.01 -176.414 -178.5 176.757 -141.021 172.579 1.05102 -1.36719 -0.0197105 1.93457 11.3199 5.69809 1.19515 -2.80635 1.15447 1.60916 -40.3531 4.22423 179.194 -178.891 -179.979 178.613 167.382 179.826 1.26606 -5.91972 1.15051
-161.977 94.8387 35.0372 2.20114 28.221 -4.9382 178.667 156.372 -179.42 178.667 156.372 -179.42 178.667 156.372 -179.42 178.667 156.372 -179.42 7.62416 -30.8592 -0.655224 123.605 152.01 156.306 6.23359 4.53248 -11.4878 174.452 -170.462 -165.633 176.696 -147.453 -178.572 59.9072 16.4882 14.0276 5.99326 4.61434 -0.825996 10.6692 -4.91884 -3.92189 4.87848 -42.1959 -0.111276 178.014 -176.464 -178.516 176.757 -141.197 172.651 1.05102 -1.36522 -0.0197105 1.94782 11.3037 5.64886 1.19528 -2.81282 1.15448 1.59838 -40.1812 4.2229 179.194 -178.892 -179.979 178.617 167.391 179.83 1.26599 -5.91629 1.1505
-161.973 94.8427 35.0563 2.19729 28.0583 -4.94653 178.666 156.424 -179.412 178.666 156.424 -179.412 178.666 156.424 -179.412 178.666 156.424 -179.412 7.60974 -30.8088 -0.65488 123.616 151.935 156.27 6.391 5.00531 -11.535 174.326 -170.117 -165.432 176.763 -147.524 -178.573 59.8621 16.496 14.0307 6.00713 4.61681 -0.834847 10.6924 -4.92179 -3.91761 4.8634 -42.1777 -0.11355 178.019 -176.515 -178.533 176.757 -141.373 172.723 1.05103 -1.36316 -0.0197105 1.96111 11.2876 5.59898 1.19542 -2.81965 1.15449 1.58759 -40.0095 4.219 179.194 -178.893 -179.979 178.62 167.4 179.836 1.2659 -5.912 1.15049
-161.969 94.8469 35.0757 2.19233 27.8964 -4.9529 178.667 156.478 -179.405 178.667 156.478 -179.405 178.667 156.478 -179.405 178.667 156.478 -179.405 7.59076 -30.7594 -0.654544 123.627 151.862 156.238 6.54369 5.46944 -11.583 174.206 -169.781 -165.233 176.83 -147.596 -178.574 59.8162 16.5052 14.0335 6.02134 4.61974 -0.843635 10.7175 -4.92489 -3.91375 4.84513 -42.1591 -0.116838 178.024 -176.567 -178.551 176.757 -141.547 172.792 1.05103 -1.361 -0.0197104 1.97443 11.2715 5.54862 1.19557 -2.82683 1.15449 1.57673 -39.838 4.21234 179.194 -178.895 -179.979 178.624 167.409 179.842 1.26579 -5.90676 1.15048
-161.965 94.851 35.0955 2.18623 27.7354 -4.95718 178.668 156.534 -179.398 178.668 156.534 -179.398 178.668 156.534 -179.398 178.668 156.534 -179.398 7.56676 -30.7111 -0.654216 123.636 151.792 156.211 6.69073 5.92245 -11.631 174.092 -169.455 -165.035 176.897 -147.669 -178.575 59.7692 16.5159 14.0362 6.03591 4.62316 -0.852365 10.7444 -4.92816 -3.91039 4.82371 -42.1402 -0.121071 178.029 -176.62 -178.57 176.757 -141.721 172.86 1.05103 -1.35874 -0.0197104 1.98776 11.2555 5.49795 1.19572 -2.83436 1.1545 1.56572 -39.6668 4.20273 179.194 -178.896 -179.979 178.627 167.419 179.849 1.26567 -5.90044 1.15047
-161.961 94.8552 35.1158 2.17893 27.5753 -4.9592 178.671 156.591 -179.393 178.671 156.591 -179.393 178.671 156.591 -179.393 178.671 156.591 -179.393 7.53732 -30.6638 -0.653896 123.644 151.724 156.187 6.83136 6.36219 -11.6786 173.983 -169.141 -164.84 176.965 -147.744 -178.576 59.7212 16.5281 14.0389 6.05087 4.62705 -0.861045 10.7734 -4.93156 -3.90761 4.79919 -42.121 -0.126181 178.035 -176.673 -178.589 176.757 -141.894 172.926 1.05103 -1.35637 -0.0197104 2.00108 11.2396 5.44717 1.19588 -2.84225 1.15451 1.55451 -39.4959 4.18996 179.194 -178.897 -179.979 178.63 167.429 179.857 1.26551 -5.89292 1.15045
-161.957 94.8594 35.1366 2.1704 27.4163 -4.95882 178.674 156.649 -179.388 178.674 156.649 -179.388 178.674 156.649 -179.388 178.674 156.649 -179.388 7.50201 -30.6176 -0.653583 123.652 151.66 156.167 6.9649 6.7868 -11.7251 173.881 -168.841 -164.65 177.033 -147.819 -178.577 59.6719 16.5418 14.0418 6.06626 4.63141 -0.869685 10.8045 -4.93511 -3.90548 4.77162 -42.1016 -0.13209 178.041 -176.727 -178.61 176.756 -142.066 172.99 1.05103 -1.35389 -0.0197104 2.01436 11.2238 5.39651 1.19604 -2.85049 1.15452 1.54301 -39.3252 4.17383 179.194 -178.899 -179.979 178.633 167.44 179.866 1.26534 -5.88408 1.15043
-161.954 94.8636 35.158 2.16059 27.2583 -4.9559 178.679 156.709 -179.384 178.679 156.709 -179.384 178.679 156.709 -179.384 178.679 156.709 -179.384 7.46049 -30.5722 -0.653277 123.659 151.599 156.152 7.09083 7.1947 -11.7698 173.784 -168.556 -164.464 177.102 -147.895 -178.578 59.6212 16.5569 14.0451 6.08211 4.63622 -0.878295 10.8377 -4.93877 -3.90409 4.74104 -42.082 -0.138726 178.047 -176.782 -178.63 176.754 -142.237 173.05 1.05103 -1.35129 -0.0197104 2.02758 11.208 5.34621 1.19622 -2.85908 1.15452 1.53117 -39.1548 4.15412 179.194 -178.9 -179.979 178.636 167.451 179.876 1.26513 -5.8738 1.15041
-161.95 94.8679 35.1799 2.14945 27.1013 -4.95028 178.685 156.77 -179.381 178.685 156.77 -179.381 178.685 156.77 -179.381 178.685 156.77 -179.381 7.41242 -30.5278 -0.652979 123.667 151.541 156.14 7.20874 7.58464 -11.8124 173.694 -168.287 -164.283 177.172 -147.972 -178.58 59.5692 16.5734 14.0489 6.09847 4.64145 -0.886891 10.873 -4.94254 -3.90351 4.70751 -42.0622 -0.146012 178.054 -176.837 -178.652 176.752 -142.408 173.108 1.05103 -1.34857 -0.0197103 2.04071 11.1924 5.2965 1.1964 -2.86801 1.15453 1.51891 -38.9847 4.13061 179.194 -178.902 -179.979 178.639 167.463 179.887 1.26489 -5.86198 1.15039
-161.946 94.8723 35.2024 2.13695 26.9455 -4.94183 178.693 156.832 -179.379 178.693 156.832 -179.379 178.693 156.832 -179.379 178.693 156.832 -179.379 7.35755 -30.4842 -0.652685 123.676 151.486 156.131 7.31833 7.95559 -11.8521 173.609 -168.035 -164.109 177.242 -148.051 -178.581 59.5157 16.5913 14.0533 6.11538 4.64706 -0.895489 10.9103 -4.94638 -3.9038 4.67107 -42.0423 -0.153875 178.061 -176.892 -178.673 176.75 -142.577 173.161 1.05103 -1.34573 -0.0197103 2.05374 11.1769 5.24767 1.19658 -2.87726 1.15454 1.50616 -38.8147 4.10309 179.194 -178.903 -179.979 178.642 167.476 179.9 1.26462 -5.8485 1.15036
